<svg width="228" height="266" viewBox="0 0 228 266" fill="none" xmlns="http://www.w3.org/2000/svg">
<g filter="url(#filter0_d_410_4876)">
<path d="M53.46 217.26C45.42 217.26 38.46 215.82 32.58 212.94C26.82 209.94 22.02 205.92 18.18 200.88C14.46 195.72 11.64 189.9 9.72 183.42C7.92 176.94 7.02 170.1 7.02 162.9C7.02 153.78 8.4 144.66 11.16 135.54C14.04 126.42 18.18 118.08 23.58 110.52C29.1 102.96 35.82 96.9 43.74 92.34C51.66 87.66 60.72 85.32 70.92 85.32C78.96 85.32 85.86 86.82 91.62 89.82C97.5 92.7 102.3 96.72 106.02 101.88C109.86 106.92 112.68 112.68 114.48 119.16C116.4 125.64 117.36 132.48 117.36 139.68C117.36 148.68 115.92 157.8 113.04 167.04C110.28 176.16 106.14 184.5 100.62 192.06C95.22 199.62 88.56 205.74 80.64 210.42C72.72 214.98 63.66 217.26 53.46 217.26ZM60.12 194.4C64.32 194.4 67.98 192.96 71.1 190.08C74.22 187.2 76.8 183.42 78.84 178.74C81 173.94 82.62 168.66 83.7 162.9C84.78 157.14 85.32 151.32 85.32 145.44C85.32 138.96 84.6 132.9 83.16 127.26C81.84 121.5 79.68 116.88 76.68 113.4C73.8 109.8 70.02 108 65.34 108C61.26 108 57.6 109.44 54.36 112.32C51.12 115.08 48.36 118.86 46.08 123.66C43.8 128.34 42.06 133.56 40.86 139.32C39.78 144.96 39.24 150.66 39.24 156.42C39.24 163.02 40.02 169.2 41.58 174.96C43.14 180.72 45.48 185.4 48.6 189C51.72 192.6 55.56 194.4 60.12 194.4Z" fill="url(#paint0_linear_410_4876)"/>
<path d="M97.26 220.24C95.18 220.24 93.48 219.64 92.16 218.44C90.88 217.2 90.24 215.3 90.24 212.74C90.24 211.46 90.38 210.12 90.66 208.72C90.98 207.28 91.32 205.88 91.68 204.52C92.08 203.12 92.42 201.86 92.7 200.74C92.98 199.62 93.12 198.72 93.12 198.04C93.12 197.36 92.98 196.88 92.7 196.6C92.42 196.28 92.08 196.12 91.68 196.12C91.28 196.12 90.88 196.26 90.48 196.54C90.08 196.78 89.74 197.16 89.46 197.68L88.98 197.5C89.06 195.86 89.52 194.46 90.36 193.3C91.2 192.14 92.24 191.26 93.48 190.66C94.76 190.06 96.04 189.76 97.32 189.76C98.36 189.76 99.36 189.98 100.32 190.42C101.28 190.82 102.04 191.46 102.6 192.34C103.2 193.18 103.48 194.26 103.44 195.58C103.4 196.46 103.24 197.54 102.96 198.82C102.68 200.1 102.34 201.48 101.94 202.96C101.58 204.4 101.26 205.8 100.98 207.16C100.7 208.52 100.56 209.72 100.56 210.76C100.56 211.64 100.68 212.34 100.92 212.86C101.2 213.38 101.66 213.64 102.3 213.64C102.98 213.64 103.88 213.28 105 212.56C106.12 211.84 107.24 210.8 108.36 209.44C108.12 207.2 108 205.22 108 203.5C108 199.1 108.64 195.92 109.92 193.96C111.24 192 112.88 191.02 114.84 191.02C116.28 191.02 117.26 191.5 117.78 192.46C118.3 193.42 118.56 194.7 118.56 196.3C118.56 198.66 118.16 200.88 117.36 202.96C116.56 205.04 115.62 206.7 114.54 207.94C114.62 209.74 114.98 211.14 115.62 212.14C116.3 213.14 117.1 213.64 118.02 213.64C118.94 213.64 119.88 213.12 120.84 212.08C121.84 211.04 122.7 209.44 123.42 207.28C124.14 205.12 124.56 202.38 124.68 199.06C124.72 196.38 124.54 194.42 124.14 193.18V192.88C124.7 191.96 125.58 191.18 126.78 190.54C128.02 189.86 129.26 189.52 130.5 189.52C131.38 189.52 132.18 189.78 132.9 190.3C133.66 190.78 134.26 191.7 134.7 193.06C135.14 194.38 135.3 196.3 135.18 198.82C135.06 202.34 134.48 205.44 133.44 208.12C132.4 210.76 131.06 212.98 129.42 214.78C127.82 216.58 126.08 217.94 124.2 218.86C122.32 219.78 120.46 220.24 118.62 220.24C116.54 220.24 114.64 219.68 112.92 218.56C111.2 217.4 109.9 215.78 109.02 213.7C107.22 215.58 105.36 217.14 103.44 218.38C101.56 219.62 99.5 220.24 97.26 220.24ZM149.24 187.9C147.64 187.9 146.32 187.42 145.28 186.46C144.28 185.46 143.78 184.22 143.78 182.74C143.78 181.14 144.38 179.76 145.58 178.6C146.78 177.44 148.24 176.86 149.96 176.86C151.56 176.86 152.86 177.36 153.86 178.36C154.9 179.36 155.42 180.6 155.42 182.08C155.42 183.68 154.82 185.06 153.62 186.22C152.42 187.34 150.96 187.9 149.24 187.9ZM145.04 220.24C143.48 220.24 142.08 219.7 140.84 218.62C139.6 217.5 138.98 215.72 138.98 213.28C138.98 211.88 139.16 210.58 139.52 209.38C139.92 208.14 140.36 206.94 140.84 205.78C141.36 204.62 141.8 203.5 142.16 202.42C142.56 201.3 142.76 200.2 142.76 199.12C142.76 198.16 142.6 197.48 142.28 197.08C141.96 196.64 141.58 196.42 141.14 196.42C140.46 196.42 139.8 196.86 139.16 197.74L138.74 197.5C138.9 195.9 139.4 194.54 140.24 193.42C141.12 192.26 142.18 191.36 143.42 190.72C144.7 190.08 145.96 189.76 147.2 189.76C148.72 189.76 150.04 190.26 151.16 191.26C152.28 192.22 152.84 193.8 152.84 196C152.84 197.32 152.64 198.72 152.24 200.2C151.88 201.64 151.44 203.08 150.92 204.52C150.44 205.96 150 207.3 149.6 208.54C149.24 209.78 149.06 210.84 149.06 211.72C149.06 212.48 149.2 213.02 149.48 213.34C149.8 213.66 150.14 213.82 150.5 213.82C150.86 213.82 151.2 213.72 151.52 213.52C151.88 213.28 152.14 213.02 152.3 212.74L152.72 212.86C152.72 214.34 152.32 215.64 151.52 216.76C150.76 217.84 149.8 218.7 148.64 219.34C147.48 219.94 146.28 220.24 145.04 220.24ZM164.316 220.18C162.836 220.18 161.496 219.6 160.296 218.44C159.096 217.24 158.496 215.58 158.496 213.46C158.496 212.42 158.636 211.24 158.916 209.92C159.196 208.6 159.496 207.26 159.816 205.9C160.176 204.54 160.496 203.26 160.776 202.06C161.056 200.86 161.196 199.88 161.196 199.12C161.196 198.32 161.036 197.7 160.716 197.26C160.396 196.78 159.976 196.54 159.456 196.54C158.776 196.54 158.036 196.94 157.236 197.74L156.876 197.5C156.836 196.86 156.976 196.1 157.296 195.22C157.616 194.34 158.096 193.5 158.736 192.7C159.416 191.86 160.276 191.16 161.316 190.6C162.356 190.04 163.596 189.76 165.036 189.76C167.156 189.76 168.716 190.38 169.716 191.62C170.756 192.82 171.276 194.3 171.276 196.06C171.276 196.7 171.216 197.32 171.096 197.92C171.936 196.68 172.976 195.44 174.216 194.2C175.456 192.92 176.816 191.86 178.296 191.02C179.816 190.18 181.376 189.76 182.976 189.76C184.856 189.76 186.136 190.36 186.816 191.56C187.496 192.76 187.836 194.26 187.836 196.06C187.836 197.74 187.656 199.54 187.296 201.46C186.936 203.38 186.576 205.24 186.216 207.04C185.856 208.8 185.676 210.28 185.676 211.48C185.676 213.08 186.136 213.88 187.056 213.88C187.536 213.88 187.956 213.74 188.316 213.46C188.676 213.14 188.916 212.84 189.036 212.56L189.456 212.74C189.456 214.22 189.036 215.52 188.196 216.64C187.396 217.76 186.376 218.64 185.136 219.28C183.896 219.88 182.636 220.18 181.356 220.18C179.796 220.18 178.416 219.64 177.216 218.56C176.016 217.48 175.416 215.72 175.416 213.28C175.416 211.84 175.596 210.28 175.956 208.6C176.356 206.92 176.736 205.3 177.096 203.74C177.456 202.18 177.636 200.9 177.636 199.9C177.636 199.3 177.516 198.84 177.276 198.52C177.076 198.16 176.696 197.98 176.136 197.98C175.216 197.98 174.196 198.4 173.076 199.24C171.996 200.08 171.056 201.2 170.256 202.6C169.496 204 169.116 205.54 169.116 207.22C169.116 208.3 169.236 209.34 169.476 210.34C169.756 211.34 169.896 212.42 169.896 213.58C169.896 215.74 169.336 217.38 168.216 218.5C167.096 219.62 165.796 220.18 164.316 220.18ZM207.091 232C205.131 232 203.511 231.42 202.231 230.26C200.951 229.1 200.311 227.46 200.311 225.34C200.311 223.06 201.111 220.38 202.711 217.3C202.431 217.38 202.151 217.44 201.871 217.48C201.591 217.52 201.311 217.54 201.031 217.54C198.711 217.54 196.751 216.54 195.151 214.54C193.591 212.5 192.811 209.68 192.811 206.08C192.811 202.84 193.431 199.98 194.671 197.5C195.951 195.02 197.571 193.08 199.531 191.68C201.491 190.28 203.531 189.58 205.651 189.58C207.131 189.58 208.471 189.96 209.671 190.72C210.871 191.44 211.851 192.62 212.611 194.26C212.651 193.86 212.671 193.5 212.671 193.18C212.671 192.86 212.671 192.56 212.671 192.28C212.671 191.6 213.191 191.04 214.231 190.6C215.271 190.16 216.431 189.94 217.711 189.94C218.871 189.94 219.951 190.16 220.951 190.6C221.951 191.04 222.611 191.78 222.931 192.82L223.051 193.18C222.691 193.5 222.371 194.54 222.091 196.3C221.851 198.06 221.551 200.5 221.191 203.62C220.951 205.58 220.651 207.82 220.291 210.34C219.931 212.82 219.431 215.34 218.791 217.9C218.191 220.42 217.391 222.74 216.391 224.86C215.391 227.02 214.131 228.74 212.611 230.02C211.091 231.34 209.251 232 207.091 232ZM205.111 210.64C206.271 210.64 207.551 209.7 208.951 207.82C210.391 205.9 211.531 203.16 212.371 199.6C211.651 198.04 210.911 196.94 210.151 196.3C209.431 195.62 208.691 195.28 207.931 195.28C206.931 195.28 205.991 195.78 205.111 196.78C204.231 197.78 203.511 199.06 202.951 200.62C202.431 202.14 202.171 203.72 202.171 205.36C202.171 207.04 202.451 208.34 203.011 209.26C203.571 210.18 204.271 210.64 205.111 210.64ZM204.391 225.1C205.751 225.1 207.131 223.76 208.531 221.08C209.971 218.44 210.971 214.7 211.531 209.86C208.491 213.98 206.371 217.16 205.171 219.4C204.011 221.6 203.431 223.16 203.431 224.08C203.431 224.76 203.751 225.1 204.391 225.1Z" fill="url(#paint1_linear_410_4876)"/>
</g>
<ellipse cx="44.5867" cy="86.7251" rx="20" ry="25.5" transform="rotate(3.66115 44.5867 86.7251)" fill="black"/>
<g filter="url(#filter1_d_410_4876)">
<path fill-rule="evenodd" clip-rule="evenodd" d="M59.2743 68.8286C58.0559 68.3861 56.7692 68.1102 55.432 68.0247C46.5836 67.4587 38.8707 75.4388 38.2049 85.8487C37.539 96.2586 44.1722 105.156 53.0207 105.722C54.7258 105.831 56.3889 105.623 57.9674 105.141C54.0157 109.81 48.6695 112.538 42.9588 112.173C31.9356 111.468 23.7286 99.5024 24.6279 85.4478C25.5272 71.3933 35.1923 60.5717 46.2154 61.277C51.4151 61.6097 55.9881 64.4477 59.2743 68.8286Z" fill="white"/>
</g>
<ellipse cx="90.5867" cy="86.7251" rx="20" ry="25.5" transform="rotate(3.66115 90.5867 86.7251)" fill="black"/>
<g filter="url(#filter2_d_410_4876)">
<path fill-rule="evenodd" clip-rule="evenodd" d="M106.282 70.2826C104.273 68.9836 101.984 68.1821 99.5238 68.0247C90.6754 67.4587 82.9625 75.4388 82.2967 85.8487C81.6308 96.2586 88.264 105.156 97.1125 105.722C99.8973 105.9 102.57 105.232 104.945 103.908C100.923 109.323 95.1554 112.569 88.9588 112.173C77.9356 111.468 69.7286 99.5024 70.6279 85.4478C71.5272 71.3933 81.1923 60.5717 92.2154 61.277C97.9699 61.6452 102.957 65.082 106.282 70.2826Z" fill="white"/>
</g>
<path d="M65 84.5C39.5 79.0058 26.1853 98.4824 26.1853 98.4824C18.6839 83.4824 32.0568 60.0221 42.6853 60.0221C50.1853 59.5215 65 67.5058 65 84.5Z" fill="#C3DCFE"/>
<path d="M109.922 93.4829C91.9256 79.477 70.4197 84.4836 70.4197 84.4836C70.4216 78.4836 76.4176 62.4779 89 60C96.5 59.4993 114.922 68.4803 109.922 93.4829Z" fill="#C3DCFE"/>
<path d="M41.1845 85.9642C48.6954 83.2005 56.187 82.6513 62.9147 84.049C55.7191 83.6069 48.698 84.0736 41.3419 86.5257L41.3082 86.5369L41.2764 86.5528C36.2559 89.063 32.8437 91.2081 29.9909 93.6172C28.8457 94.5842 27.7936 95.5914 26.7661 96.6776C30.4797 92.1122 35.5762 88.4208 41.1845 85.9642Z" stroke="black"/>
<path d="M92.1128 84.516C86.6373 83.2526 80.8225 83.353 73.5746 84.0277C79.969 82.3554 86.9983 82.2556 92.8587 83.9794C97.0935 85.225 100.418 86.46 103.486 88.3629C105.237 89.4488 106.913 90.7575 108.63 92.4205C105.739 90.3315 103.26 88.916 101.026 87.8624C98.6364 86.7356 96.5187 86.0208 94.5161 85.3449C93.7196 85.076 92.9413 84.8133 92.1713 84.5333L92.1426 84.5228L92.1128 84.516Z" stroke="black"/>
<defs>
<filter id="filter0_d_410_4876" x="3.01953" y="85.3201" width="224.031" height="154.68" filterUnits="userSpaceOnUse" color-interpolation-filters="sRGB">
<feFlood flood-opacity="0" result="BackgroundImageFix"/>
<feColorMatrix in="SourceAlpha" type="matrix" values="0 0 0 0 0 0 0 0 0 0 0 0 0 0 0 0 0 0 127 0" result="hardAlpha"/>
<feOffset dy="4"/>
<feGaussianBlur stdDeviation="2"/>
<feComposite in2="hardAlpha" operator="out"/>
<feColorMatrix type="matrix" values="0 0 0 0 0 0 0 0 0 0 0 0 0 0 0 0 0 0 0.25 0"/>
<feBlend mode="normal" in2="BackgroundImageFix" result="effect1_dropShadow_410_4876"/>
<feBlend mode="normal" in="SourceGraphic" in2="effect1_dropShadow_410_4876" result="shape"/>
</filter>
<filter id="filter1_d_410_4876" x="20.5605" y="61.2444" width="42.7129" height="58.9612" filterUnits="userSpaceOnUse" color-interpolation-filters="sRGB">
<feFlood flood-opacity="0" result="BackgroundImageFix"/>
<feColorMatrix in="SourceAlpha" type="matrix" values="0 0 0 0 0 0 0 0 0 0 0 0 0 0 0 0 0 0 127 0" result="hardAlpha"/>
<feOffset dy="4"/>
<feGaussianBlur stdDeviation="2"/>
<feComposite in2="hardAlpha" operator="out"/>
<feColorMatrix type="matrix" values="0 0 0 0 0 0 0 0 0 0 0 0 0 0 0 0 0 0 0.25 0"/>
<feBlend mode="normal" in2="BackgroundImageFix" result="effect1_dropShadow_410_4876"/>
<feBlend mode="normal" in="SourceGraphic" in2="effect1_dropShadow_410_4876" result="shape"/>
</filter>
<filter id="filter2_d_410_4876" x="66.5605" y="61.2444" width="43.7207" height="58.9612" filterUnits="userSpaceOnUse" color-interpolation-filters="sRGB">
<feFlood flood-opacity="0" result="BackgroundImageFix"/>
<feColorMatrix in="SourceAlpha" type="matrix" values="0 0 0 0 0 0 0 0 0 0 0 0 0 0 0 0 0 0 127 0" result="hardAlpha"/>
<feOffset dy="4"/>
<feGaussianBlur stdDeviation="2"/>
<feComposite in2="hardAlpha" operator="out"/>
<feColorMatrix type="matrix" values="0 0 0 0 0 0 0 0 0 0 0 0 0 0 0 0 0 0 0.25 0"/>
<feBlend mode="normal" in2="BackgroundImageFix" result="effect1_dropShadow_410_4876"/>
<feBlend mode="normal" in="SourceGraphic" in2="effect1_dropShadow_410_4876" result="shape"/>
</filter>
<linearGradient id="paint0_linear_410_4876" x1="60.5" y1="0" x2="60.5" y2="266" gradientUnits="userSpaceOnUse">
<stop stop-color="#C3DCFE"/>
<stop offset="1" stop-color="#3082F6"/>
</linearGradient>
<linearGradient id="paint1_linear_410_4876" x1="156" y1="148" x2="156" y2="237" gradientUnits="userSpaceOnUse">
<stop stop-color="#C3DCFE"/>
<stop offset="1" stop-color="#3082F6"/>
</linearGradient>
</defs>
</svg>
