<svg width="121" height="266" viewBox="0 0 121 266" fill="none" xmlns="http://www.w3.org/2000/svg">
<path d="M53.46 217.26C45.42 217.26 38.46 215.82 32.58 212.94C26.82 209.94 22.02 205.92 18.18 200.88C14.46 195.72 11.64 189.9 9.72 183.42C7.92 176.94 7.02 170.1 7.02 162.9C7.02 153.78 8.4 144.66 11.16 135.54C14.04 126.42 18.18 118.08 23.58 110.52C29.1 102.96 35.82 96.9 43.74 92.34C51.66 87.66 60.72 85.32 70.92 85.32C78.96 85.32 85.86 86.82 91.62 89.82C97.5 92.7 102.3 96.72 106.02 101.88C109.86 106.92 112.68 112.68 114.48 119.16C116.4 125.64 117.36 132.48 117.36 139.68C117.36 148.68 115.92 157.8 113.04 167.04C110.28 176.16 106.14 184.5 100.62 192.06C95.22 199.62 88.56 205.74 80.64 210.42C72.72 214.98 63.66 217.26 53.46 217.26ZM60.12 194.4C64.32 194.4 67.98 192.96 71.1 190.08C74.22 187.2 76.8 183.42 78.84 178.74C81 173.94 82.62 168.66 83.7 162.9C84.78 157.14 85.32 151.32 85.32 145.44C85.32 138.96 84.6 132.9 83.16 127.26C81.84 121.5 79.68 116.88 76.68 113.4C73.8 109.8 70.02 108 65.34 108C61.26 108 57.6 109.44 54.36 112.32C51.12 115.08 48.36 118.86 46.08 123.66C43.8 128.34 42.06 133.56 40.86 139.32C39.78 144.96 39.24 150.66 39.24 156.42C39.24 163.02 40.02 169.2 41.58 174.96C43.14 180.72 45.48 185.4 48.6 189C51.72 192.6 55.56 194.4 60.12 194.4Z" fill="url(#paint0_linear_477_4889)"/>
<ellipse cx="44.5867" cy="86.7251" rx="20" ry="25.5" transform="rotate(3.66115 44.5867 86.7251)" fill="black"/>
<g filter="url(#filter0_d_477_4889)">
<path fill-rule="evenodd" clip-rule="evenodd" d="M59.2743 68.8284C58.0559 68.3858 56.7692 68.11 55.432 68.0245C46.5836 67.4585 38.8707 75.4385 38.2049 85.8485C37.539 96.2584 44.1722 105.156 53.0207 105.722C54.7258 105.831 56.3889 105.623 57.9674 105.141C54.0157 109.81 48.6695 112.538 42.9588 112.173C31.9356 111.467 23.7286 99.5021 24.6279 85.4476C25.5272 71.3931 35.1923 60.5714 46.2154 61.2768C51.4151 61.6095 55.9881 64.4475 59.2743 68.8284Z" fill="white"/>
</g>
<ellipse cx="90.5867" cy="86.7251" rx="20" ry="25.5" transform="rotate(3.66115 90.5867 86.7251)" fill="black"/>
<g filter="url(#filter1_d_477_4889)">
<path fill-rule="evenodd" clip-rule="evenodd" d="M106.282 70.2824C104.273 68.9833 101.984 68.1818 99.5238 68.0245C90.6754 67.4585 82.9625 75.4385 82.2967 85.8485C81.6308 96.2584 88.264 105.156 97.1125 105.722C99.8973 105.9 102.57 105.232 104.945 103.908C100.923 109.323 95.1554 112.569 88.9588 112.173C77.9356 111.467 69.7286 99.5021 70.6279 85.4476C71.5272 71.3931 81.1923 60.5714 92.2154 61.2768C97.9699 61.645 102.957 65.0817 106.282 70.2824Z" fill="white"/>
</g>
<path d="M65 84.5C39.5 79.0058 26.1853 98.4824 26.1853 98.4824C18.6839 83.4824 32.0568 60.0221 42.6853 60.0221C50.1853 59.5215 65 67.5058 65 84.5Z" fill="#C3DCFE"/>
<path d="M109.922 93.4829C91.9256 79.477 70.4197 84.4836 70.4197 84.4836C70.4216 78.4836 76.4176 62.4779 89 60C96.5 59.4993 114.922 68.4803 109.922 93.4829Z" fill="#C3DCFE"/>
<path d="M41.1845 85.9642C48.6954 83.2005 56.187 82.6513 62.9147 84.049C55.7191 83.6069 48.698 84.0736 41.3419 86.5257L41.3082 86.5369L41.2764 86.5528C36.2559 89.063 32.8437 91.2081 29.9909 93.6172C28.8457 94.5842 27.7936 95.5914 26.7661 96.6776C30.4797 92.1122 35.5762 88.4208 41.1845 85.9642Z" stroke="black"/>
<path d="M92.1128 84.516C86.6373 83.2526 80.8225 83.353 73.5746 84.0277C79.969 82.3554 86.9983 82.2556 92.8587 83.9794C97.0935 85.225 100.418 86.46 103.486 88.3629C105.237 89.4488 106.913 90.7575 108.63 92.4205C105.739 90.3315 103.26 88.916 101.026 87.8624C98.6364 86.7356 96.5187 86.0208 94.5161 85.3449C93.7196 85.076 92.9413 84.8133 92.1713 84.5333L92.1426 84.5228L92.1128 84.516Z" stroke="black"/>
<defs>
<filter id="filter0_d_477_4889" x="20.5605" y="61.2441" width="42.7129" height="58.9609" filterUnits="userSpaceOnUse" color-interpolation-filters="sRGB">
<feFlood flood-opacity="0" result="BackgroundImageFix"/>
<feColorMatrix in="SourceAlpha" type="matrix" values="0 0 0 0 0 0 0 0 0 0 0 0 0 0 0 0 0 0 127 0" result="hardAlpha"/>
<feOffset dy="4"/>
<feGaussianBlur stdDeviation="2"/>
<feComposite in2="hardAlpha" operator="out"/>
<feColorMatrix type="matrix" values="0 0 0 0 0 0 0 0 0 0 0 0 0 0 0 0 0 0 0.25 0"/>
<feBlend mode="normal" in2="BackgroundImageFix" result="effect1_dropShadow_477_4889"/>
<feBlend mode="normal" in="SourceGraphic" in2="effect1_dropShadow_477_4889" result="shape"/>
</filter>
<filter id="filter1_d_477_4889" x="66.5605" y="61.2441" width="43.7207" height="58.9609" filterUnits="userSpaceOnUse" color-interpolation-filters="sRGB">
<feFlood flood-opacity="0" result="BackgroundImageFix"/>
<feColorMatrix in="SourceAlpha" type="matrix" values="0 0 0 0 0 0 0 0 0 0 0 0 0 0 0 0 0 0 127 0" result="hardAlpha"/>
<feOffset dy="4"/>
<feGaussianBlur stdDeviation="2"/>
<feComposite in2="hardAlpha" operator="out"/>
<feColorMatrix type="matrix" values="0 0 0 0 0 0 0 0 0 0 0 0 0 0 0 0 0 0 0.25 0"/>
<feBlend mode="normal" in2="BackgroundImageFix" result="effect1_dropShadow_477_4889"/>
<feBlend mode="normal" in="SourceGraphic" in2="effect1_dropShadow_477_4889" result="shape"/>
</filter>
<linearGradient id="paint0_linear_477_4889" x1="60.5" y1="0" x2="60.5" y2="266" gradientUnits="userSpaceOnUse">
<stop stop-color="#C3DCFE"/>
<stop offset="1" stop-color="#3082F6"/>
</linearGradient>
</defs>
</svg>
