<svg width="121" height="266" viewBox="0 0 121 266" fill="none" xmlns="http://www.w3.org/2000/svg">
<path d="M53.46 217.26C45.42 217.26 38.46 215.82 32.58 212.94C26.82 209.94 22.02 205.92 18.18 200.88C14.46 195.72 11.64 189.9 9.72 183.42C7.92 176.94 7.02 170.1 7.02 162.9C7.02 153.78 8.4 144.66 11.16 135.54C14.04 126.42 18.18 118.08 23.58 110.52C29.1 102.96 35.82 96.9 43.74 92.34C51.66 87.66 60.72 85.32 70.92 85.32C78.96 85.32 85.86 86.82 91.62 89.82C97.5 92.7 102.3 96.72 106.02 101.88C109.86 106.92 112.68 112.68 114.48 119.16C116.4 125.64 117.36 132.48 117.36 139.68C117.36 148.68 115.92 157.8 113.04 167.04C110.28 176.16 106.14 184.5 100.62 192.06C95.22 199.62 88.56 205.74 80.64 210.42C72.72 214.98 63.66 217.26 53.46 217.26ZM60.12 194.4C64.32 194.4 67.98 192.96 71.1 190.08C74.22 187.2 76.8 183.42 78.84 178.74C81 173.94 82.62 168.66 83.7 162.9C84.78 157.14 85.32 151.32 85.32 145.44C85.32 138.96 84.6 132.9 83.16 127.26C81.84 121.5 79.68 116.88 76.68 113.4C73.8 109.8 70.02 108 65.34 108C61.26 108 57.6 109.44 54.36 112.32C51.12 115.08 48.36 118.86 46.08 123.66C43.8 128.34 42.06 133.56 40.86 139.32C39.78 144.96 39.24 150.66 39.24 156.42C39.24 163.02 40.02 169.2 41.58 174.96C43.14 180.72 45.48 185.4 48.6 189C51.72 192.6 55.56 194.4 60.12 194.4Z" fill="url(#paint0_linear_477_4890)"/>
<ellipse cx="44.5867" cy="86.7251" rx="20" ry="25.5" transform="rotate(3.66115 44.5867 86.7251)" fill="black"/>
<g filter="url(#filter0_d_477_4890)">
<path fill-rule="evenodd" clip-rule="evenodd" d="M59.2743 68.8289C58.0559 68.3863 56.7692 68.1105 55.432 68.025C46.5836 67.459 38.8707 75.439 38.2049 85.8489C37.539 96.2589 44.1722 105.157 53.0207 105.723C54.7258 105.832 56.3888 105.623 57.9674 105.141C54.0157 109.81 48.6695 112.539 42.9588 112.173C31.9356 111.468 23.7286 99.5026 24.6279 85.4481C25.5272 71.3936 35.1923 60.5719 46.2154 61.2772C51.4151 61.6099 55.9881 64.448 59.2743 68.8289Z" fill="white"/>
</g>
<ellipse cx="90.5867" cy="86.7251" rx="20" ry="25.5" transform="rotate(3.66115 90.5867 86.7251)" fill="black"/>
<g filter="url(#filter1_d_477_4890)">
<path fill-rule="evenodd" clip-rule="evenodd" d="M106.282 70.2829C104.273 68.9838 101.984 68.1823 99.5238 68.025C90.6754 67.459 82.9625 75.439 82.2967 85.8489C81.6308 96.2589 88.264 105.157 97.1125 105.723C99.8973 105.901 102.57 105.232 104.945 103.908C100.923 109.324 95.1554 112.57 88.9588 112.173C77.9356 111.468 69.7286 99.5026 70.6279 85.4481C71.5272 71.3936 81.1923 60.5719 92.2154 61.2772C97.9699 61.6454 102.957 65.0822 106.282 70.2829Z" fill="white"/>
</g>
<defs>
<filter id="filter0_d_477_4890" x="20.5605" y="61.2446" width="42.7129" height="58.9609" filterUnits="userSpaceOnUse" color-interpolation-filters="sRGB">
<feFlood flood-opacity="0" result="BackgroundImageFix"/>
<feColorMatrix in="SourceAlpha" type="matrix" values="0 0 0 0 0 0 0 0 0 0 0 0 0 0 0 0 0 0 127 0" result="hardAlpha"/>
<feOffset dy="4"/>
<feGaussianBlur stdDeviation="2"/>
<feComposite in2="hardAlpha" operator="out"/>
<feColorMatrix type="matrix" values="0 0 0 0 0 0 0 0 0 0 0 0 0 0 0 0 0 0 0.25 0"/>
<feBlend mode="normal" in2="BackgroundImageFix" result="effect1_dropShadow_477_4890"/>
<feBlend mode="normal" in="SourceGraphic" in2="effect1_dropShadow_477_4890" result="shape"/>
</filter>
<filter id="filter1_d_477_4890" x="66.5605" y="61.2446" width="43.7207" height="58.9609" filterUnits="userSpaceOnUse" color-interpolation-filters="sRGB">
<feFlood flood-opacity="0" result="BackgroundImageFix"/>
<feColorMatrix in="SourceAlpha" type="matrix" values="0 0 0 0 0 0 0 0 0 0 0 0 0 0 0 0 0 0 127 0" result="hardAlpha"/>
<feOffset dy="4"/>
<feGaussianBlur stdDeviation="2"/>
<feComposite in2="hardAlpha" operator="out"/>
<feColorMatrix type="matrix" values="0 0 0 0 0 0 0 0 0 0 0 0 0 0 0 0 0 0 0.25 0"/>
<feBlend mode="normal" in2="BackgroundImageFix" result="effect1_dropShadow_477_4890"/>
<feBlend mode="normal" in="SourceGraphic" in2="effect1_dropShadow_477_4890" result="shape"/>
</filter>
<linearGradient id="paint0_linear_477_4890" x1="60.5" y1="0" x2="60.5" y2="266" gradientUnits="userSpaceOnUse">
<stop stop-color="#EF931A"/>
<stop offset="1" stop-color="#FB5D2B"/>
</linearGradient>
</defs>
</svg>
